<?xml version="1.0" standalone="no"?>
<!DOCTYPE svg PUBLIC "-//W3C//DTD SVG 20010904//EN"
 "http://www.w3.org/TR/2001/REC-SVG-20010904/DTD/svg10.dtd">
<svg version="1.0" xmlns="http://www.w3.org/2000/svg"
 width="1024.000000pt" height="1024.000000pt" viewBox="0 0 1024.000000 1024.000000"
 preserveAspectRatio="xMidYMid meet">
<metadata>
Created by potrace 1.14, written by Peter Selinger 2001-2017
</metadata>
<g transform="translate(0.000000,1024.000000) scale(0.100000,-0.100000)"
fill="#000000" stroke="none">
<path d="M0 5120 l0 -5120 5120 0 5120 0 0 5120 0 5120 -5120 0 -5120 0 0
-5120z m3328 2566 c26 -8 79 -24 117 -35 39 -11 151 -45 250 -76 187 -58 229
-70 380 -110 50 -13 116 -31 147 -39 49 -13 142 -51 158 -63 2 -2 -2 -9 -10
-14 -30 -21 45 0 113 31 95 44 208 51 327 21 91 -23 154 -58 165 -91 8 -26 41
-22 165 20 83 27 230 74 240 75 3 1 46 14 95 29 50 16 140 41 200 57 61 15
162 44 225 64 109 34 274 80 316 88 10 2 36 7 57 12 42 8 56 5 277 -60 80 -24
199 -58 265 -75 169 -44 318 -86 400 -110 39 -12 129 -37 200 -56 326 -87 455
-130 470 -154 16 -26 -11 -27 -78 -4 -39 14 -101 33 -137 44 -137 40 -280 80
-410 115 -74 20 -168 48 -207 61 -40 14 -151 45 -245 69 -252 66 -281 74 -303
84 -11 5 -61 21 -111 35 l-90 26 -70 -21 c-38 -12 -101 -29 -139 -39 -39 -9
-109 -29 -155 -43 -47 -14 -130 -37 -185 -52 -55 -14 -152 -44 -215 -66 -113
-38 -185 -59 -345 -99 -44 -11 -128 -37 -188 -57 -59 -20 -110 -33 -113 -30
-12 11 5 37 31 47 30 11 34 24 5 15 -12 -4 -20 -2 -20 5 0 8 -14 10 -42 6 -41
-5 -42 -5 -10 5 19 5 32 15 29 22 -8 25 -100 49 -188 49 -112 0 -187 -16 -284
-62 -132 -63 -164 -107 -172 -240 -12 -190 123 -546 296 -778 29 -39 20 -67
-20 -67 -18 0 -29 10 -42 38 -10 20 -25 37 -33 37 -8 0 -14 10 -14 23 0 22
-70 168 -133 277 -94 164 -135 439 -87 578 11 31 29 69 40 84 14 19 16 28 7
31 -6 3 -2 6 10 6 12 1 34 11 48 24 l27 22 -114 34 c-62 18 -140 41 -173 51
-33 10 -96 28 -140 39 -44 12 -186 56 -315 97 -313 99 -312 99 -335 95 -39 -6
-192 -70 -335 -139 -80 -39 -168 -79 -195 -90 -54 -22 -159 -69 -242 -109 -29
-14 -58 -23 -65 -20 -7 2 3 11 22 19 19 9 74 34 122 57 48 22 91 41 94 41 4 0
21 10 38 23 45 34 236 128 246 122 5 -3 12 1 17 9 8 14 97 53 233 102 78 28
70 27 128 10z m31 -147 c24 -11 67 -25 95 -33 28 -8 123 -35 211 -61 88 -26
207 -60 265 -75 58 -15 135 -36 172 -47 36 -11 80 -18 97 -15 33 5 44 -15 14
-24 -10 -3 -26 -10 -36 -15 -17 -9 -98 10 -332 80 -161 48 -467 132 -469 129
0 -2 -7 -13 -13 -25 -7 -13 -13 -30 -13 -38 0 -8 -4 -15 -10 -15 -5 0 -10 20
-10 45 0 40 -3 47 -26 55 -14 6 -39 10 -55 10 -37 0 -344 -119 -584 -226 -27
-12 -96 -41 -152 -64 -56 -23 -107 -47 -112 -54 -14 -17 -27 -2966 -13 -2966
6 0 14 5 18 11 3 6 30 22 58 35 53 25 124 31 161 13 15 -7 8 -8 -25 -6 -25 2
-57 -2 -73 -10 -15 -8 -32 -11 -37 -8 -11 7 -60 -15 -60 -27 0 -4 -6 -8 -14
-8 -34 0 -74 -132 -77 -254 -1 -54 -5 -76 -15 -76 -16 0 -23 114 -11 185 5 28
12 232 17 455 9 498 15 2609 6 2617 -3 4 -6 22 -6 42 l0 36 103 39 c98 37 122
47 212 86 22 10 67 27 100 38 33 11 94 34 135 50 41 17 134 53 205 81 72 28
139 55 150 60 25 11 67 4 124 -20z m3157 -68 c77 -22 173 -48 214 -59 41 -11
131 -37 200 -57 69 -20 202 -60 295 -87 94 -27 215 -63 270 -80 55 -16 165
-46 245 -67 129 -32 145 -39 142 -56 -2 -11 -12 -28 -22 -39 -17 -18 -18 -18
-17 0 2 19 14 15 -303 104 -96 27 -147 42 -340 102 -36 11 -92 26 -125 33 -33
8 -94 25 -135 38 -41 14 -115 37 -165 52 -49 15 -117 35 -150 45 -108 33 -239
60 -290 60 -27 0 -61 0 -74 0 -50 0 -257 -54 -626 -165 -60 -18 -132 -38 -160
-45 -76 -17 -296 -81 -314 -90 -9 -5 -38 -14 -65 -20 -39 -9 -51 -8 -57 2 -5
7 -5 16 -1 19 17 15 193 69 417 128 44 12 98 28 120 36 55 20 328 98 455 130
58 14 128 32 155 40 92 25 178 19 331 -24z m-1709 -187 c-3 -3 -12 -4 -19 -1
-8 3 -5 6 6 6 11 1 17 -2 13 -5z m47 -35 c5 -5 7 -11 4 -14 -5 -6 -68 23 -68
32 0 8 53 -7 64 -18z m-134 -156 c73 -52 92 -152 42 -213 -27 -32 -33 -34 -98
-36 -63 -2 -65 -2 -20 5 64 10 106 53 106 111 0 33 -5 43 -35 66 -45 34 -111
42 -156 20 -43 -21 -49 -20 -49 7 0 78 123 101 210 40z m3080 -127 c0 -2 -7
-9 -15 -16 -13 -11 -14 -10 -9 4 5 14 24 23 24 12z m52 -2241 c2 -1932 1
-1960 -18 -1957 -10 2 -23 8 -28 13 -6 5 -16 9 -24 9 -22 0 -471 142 -537 170
-19 8 -122 40 -310 95 -49 15 -108 33 -130 41 -111 39 -371 114 -395 114 -15
0 -68 -12 -116 -26 -49 -15 -118 -35 -154 -45 -79 -22 -349 -108 -445 -142
-38 -14 -137 -46 -220 -72 -82 -26 -163 -54 -180 -61 -16 -8 -84 -30 -150 -50
-66 -19 -150 -45 -187 -58 l-67 -22 -178 57 c-98 31 -207 67 -243 78 -86 27
-497 168 -790 271 -489 171 -455 161 -508 145 -26 -8 -76 -23 -112 -34 -36
-11 -117 -38 -180 -61 -63 -23 -142 -50 -175 -60 -56 -17 -247 -85 -306 -108
-28 -11 -42 -52 -32 -91 3 -11 1 -21 -5 -21 -7 0 -12 141 -14 413 -4 340 -7
419 -20 452 -15 39 -10 85 10 85 5 0 17 -39 28 -87 15 -72 19 -142 22 -393 2
-168 7 -309 11 -313 7 -7 36 2 116 39 17 8 86 32 153 54 68 22 136 46 150 54
15 7 43 17 62 20 19 4 49 13 65 21 17 7 84 27 150 45 66 17 121 35 123 40 2 5
11 6 20 1 9 -5 33 -14 52 -21 239 -85 434 -154 470 -166 112 -37 255 -85 375
-126 289 -100 581 -194 693 -223 63 -16 92 -13 172 15 14 5 79 25 145 45 66
20 134 43 152 51 17 8 37 14 43 14 7 0 65 19 129 41 64 23 143 48 176 56 33 8
82 26 110 41 27 14 68 29 90 33 90 16 411 113 429 130 6 5 19 9 30 9 12 1 38
7 59 14 35 13 45 11 205 -40 92 -30 201 -64 242 -74 41 -11 93 -27 115 -35 22
-7 114 -37 205 -65 321 -101 415 -131 435 -141 11 -5 71 -25 133 -43 l112 -34
0 1091 c0 714 5 1163 12 1297 17 287 17 536 0 532 -14 -2 -17 360 -5 751 5
183 8 216 20 205 11 -12 13 -342 15 -1973z m-2454 368 c-10 -2 -26 -2 -35 0
-10 3 -2 5 17 5 19 0 27 -2 18 -5z m-95 -10 c-7 -2 -19 -2 -25 0 -7 3 -2 5 12
5 14 0 19 -2 13 -5z m-333 -18 c0 -3 -9 -15 -19 -27 -18 -18 -27 -20 -78 -13
-86 10 -87 19 -3 31 97 15 100 15 100 9z m-2319 -918 c24 -16 35 -31 36 -52 2
-25 1 -27 -7 -10 -7 18 -9 18 -9 2 -1 -18 -37 -37 -70 -37 -27 0 -45 67 -25
97 18 29 32 29 75 0z m-254 -224 c-3 -10 -5 -2 -5 17 0 19 2 27 5 18 2 -10 2
-26 0 -35z m10 -55 c-3 -7 -5 -2 -5 12 0 14 2 19 5 13 2 -7 2 -19 0 -25z m84
-197 c27 -40 46 -84 63 -150 14 -52 30 -97 36 -101 16 -10 71 1 69 14 -4 21
13 71 44 126 39 72 67 108 67 87 0 -9 -4 -18 -9 -21 -4 -3 -22 -45 -40 -93
-40 -111 -48 -122 -102 -129 -24 -3 -50 -7 -56 -9 -8 -3 -13 6 -13 23 0 50
-28 136 -79 243 -27 57 -53 125 -56 149 -5 42 -4 40 16 -19 11 -36 38 -90 60
-120z m1204 -17 c15 -15 14 -18 -6 -40 l-23 -24 -28 27 -28 27 32 12 c18 6 34
12 35 13 1 0 9 -6 18 -15z m-402 -477 c3 -7 20 -18 38 -24 19 -6 79 -27 134
-48 209 -76 740 -250 1298 -425 32 -10 67 -26 78 -36 22 -20 29 -17 569 162
140 47 309 101 375 120 66 19 134 42 150 49 41 19 204 70 290 90 39 9 79 21
90 25 11 5 36 13 55 18 36 9 37 8 345 -88 33 -10 128 -39 210 -65 83 -25 233
-73 335 -105 187 -59 280 -87 380 -114 30 -8 93 -25 140 -39 143 -41 185 -52
193 -49 9 3 9 -20 -1 -35 -6 -9 -24 -7 -77 8 -39 11 -86 24 -105 29 -19 5 -87
25 -150 44 -63 19 -155 46 -205 61 -166 48 -289 86 -370 115 -44 15 -114 38
-155 50 -74 22 -223 68 -416 130 l-100 32 -115 -36 c-120 -37 -320 -102 -354
-116 -22 -9 -564 -185 -715 -232 -52 -16 -104 -34 -115 -38 -42 -19 -166 -51
-197 -52 -38 -1 -86 11 -208 52 -47 16 -148 48 -225 73 -353 112 -657 211
-735 238 -47 17 -119 41 -160 54 -159 50 -315 106 -324 115 -6 6 -14 6 -20 1
-6 -5 -36 -16 -66 -24 -121 -33 -239 -69 -310 -96 -203 -77 -511 -178 -576
-188 -34 -6 -36 -5 -25 14 7 14 29 25 63 33 29 7 82 24 118 37 36 14 90 33
120 43 30 11 93 33 140 50 98 36 287 100 312 105 9 2 26 8 36 14 25 14 200 60
228 61 12 0 24 -6 27 -13z"/>
</g>
</svg>
